<?xml version="1.0" encoding="utf-8"?>
<!-- Generator: Adobe Illustrator 21.1.0, SVG Export Plug-In . SVG Version: 6.00 Build 0)  -->
<svg version="1.1" id="Layer_1" xmlns="http://www.w3.org/2000/svg" xmlns:xlink="http://www.w3.org/1999/xlink" x="0px" y="0px"
	 viewBox="0 0 458.1 207.7" style="enable-background:new 0 0 458.1 207.7;" xml:space="preserve">
<style type="text/css">
	.st0{fill:#FFFFFF;}
</style>
<g>
	<g>
		<path class="st0" d="M70.6,87l0,28.2l-7.8,0l0-28.2l-9.9,0l0-6.7l27.6,0l0,6.7L70.6,87z"/>
		<path class="st0" d="M107.9,80.2l7.8,0l0,34.9l-7.8,0l0-13.7l-13.9,0l0,13.7l-7.8,0l0-34.9l7.8,0l0,14.6l13.9,0L107.9,80.2z"/>
		<path class="st0" d="M149.4,80.3l0,6.9l-17.4,0l0,7.2l15.6,0l0,6.6l-15.6,0l0,7.2l17.9,0l0,6.9l-25.7,0l0-34.9L149.4,80.3z"/>
		<path class="st0" d="M194.1,80.3l0,6.8l-16.2,0l0,7.5l15.4,0l0,6.8l-15.4,0l0,13.7l-7.8,0l0-34.9L194.1,80.3z"/>
		<path class="st0" d="M200.7,115.2l0-34.9l7.8,0l0,28l14.9,0l0,6.9L200.7,115.2z"/>
		<path class="st0" d="M241.1,115.2l-7.8,0l0-13.8l-12.1-21.1l8.4,0l7.5,13l7.6-13l8.4,0l-12.1,21.1L241.1,115.2z"/>
		<path class="st0" d="M272.2,115.3l-15.3,0l0-34.9l13.6,0c2.4,0,4.4,0.3,6.1,0.9c1.7,0.6,3,1.3,3.9,2.3c1.6,1.8,2.3,3.8,2.3,6.1
			c0,2.7-0.9,4.8-2.7,6.1c-0.6,0.5-1,0.8-1.2,0.9c-0.2,0.1-0.7,0.3-1.3,0.6c2.2,0.5,3.9,1.4,5.2,2.9c1.3,1.5,1.9,3.3,1.9,5.5
			c0,2.4-0.8,4.6-2.5,6.4C280.4,114.2,277,115.3,272.2,115.3z M264.7,94.5l3.7,0c2.2,0,3.8-0.2,4.8-0.7c1-0.5,1.6-1.5,1.6-3
			c0-1.5-0.5-2.6-1.4-3.1c-1-0.5-2.6-0.8-4.9-0.8l-3.7,0L264.7,94.5z M264.7,108.7l5.3,0c2.2,0,3.9-0.3,5-0.8s1.7-1.6,1.7-3.2
			c0-1.6-0.6-2.7-1.8-3.2c-1.2-0.5-3.1-0.8-5.7-0.8l-4.6,0L264.7,108.7z"/>
		<path class="st0" d="M320.7,110.5c-3.5,3.4-7.9,5.2-13,5.2c-5.2,0-9.5-1.7-13-5.2c-3.5-3.4-5.3-7.7-5.3-12.9
			c0-5.1,1.8-9.4,5.3-12.9c3.5-3.4,7.9-5.2,13-5.2c5.2,0,9.5,1.7,13,5.2c3.5,3.4,5.3,7.7,5.3,12.9C326,102.7,324.2,107,320.7,110.5z
			 M318.1,97.6c0-3.1-1-5.8-3-8c-2-2.2-4.5-3.3-7.4-3.3c-2.9,0-5.4,1.1-7.4,3.3c-2,2.2-3,4.9-3,8c0,3.1,1,5.8,3,7.9
			c2,2.2,4.5,3.3,7.4,3.3c2.9,0,5.4-1.1,7.4-3.3C317.1,103.4,318.1,100.7,318.1,97.6z"/>
		<path class="st0" d="M375.3,80.4l7.8,0l0,14.3l13.2-14.3l9.6,0L392,95.8c1.2,1.7,3.4,4.8,6.6,9.3c3.2,4.5,5.6,7.9,7.2,10.2l-9.1,0
			l-10.2-13.8l-3.5,3.9l0,9.9l-7.8,0L375.3,80.4z"/>
		<path class="st0" d="M13.7,31.3v143.2l213.6,29.4l215.5-29.4V31.3L227.3,1.9L13.7,31.3z M30.5,155.8V67c1.4-0.7,4.2-1.7,8.1-2.7
			c7.4-1.7,14.3-4.7,17.2-5.9l0.4-0.2c0,0,2.6-1.4,6.6-1.4c1.8,0,3.2,0,4.4,0.1c2.4,0.1,4.6,0.1,8.6-0.1c4.2-0.2,6.5-1.4,8.5-2.4
			c1.2-0.6,2.3-1.1,3.8-1.5c0.7-0.2,1.3-0.3,1.8-0.4c3.6-0.7,4.4-1.1,9.4-4.8c2.4-1.8,5.9-4.1,9.6-6.7c4.7-3.2,9.6-6.5,12.6-8.9
			c0.7-0.6,1.4-1.2,2.1-1.7c3-2.4,6.1-4.9,7.3-5.1c0.5-0.1,1.1-0.1,1.6-0.2c2-0.3,3.3-0.5,4.5,0c0.9,0.4,1.3,0.5,1.9,0.8
			c0.9,0.5,2.2,1.1,6,2.6l1.8,0.7c4.5,1.7,4.8,1.9,8.2,4.1l0.6,0.4c4.1,2.7,7.1,4.7,11.2,4.7c1.6,0,2.9-0.3,3.8-0.6
			c1-0.3,1-0.3,1.6,0.1c0.5,0.3,0.6,0.4,0.9,0.9c1.1,1.6,2.7,3.4,6.8,3.4c0.7,0,1.4,0,1.9,0c2.8,0.1,4.1,0,8.2-1.2
			c2.4-0.8,3.8-1.3,5-1.9c1.1-0.5,2.2-1,4.3-1.6c4.1-1.3,5.7-1.5,8.1-1.2c0.8,0.1,1.3,0.2,1.9,0.4c1.6,0.5,3.1,0.9,6.1,0.6
			c3.6-0.3,6.3-2,8.7-3.6c1.1-0.7,2.2-1.4,3.3-1.9c1.6-0.7,2.9-1.6,4.2-2.5c1.5-1,3.4-2.3,4.2-2.1c2.5,0.7,4.5,2,7.6,3.9
			c0.8,0.5,1.6,1,2.5,1.5c3.2,2,7.7,3.8,11.8,5.4c2,0.8,3.9,1.5,5,2.1c1.5,0.7,3.1,1.3,4.8,1.9c2.5,0.9,5.4,2,8.6,3.8
			c1.9,1.1,3.7,2.3,5.4,3.6c3.3,2.4,6.5,4.6,10,5.2c5,0.8,14.6-0.4,23-4.5c6.4-3.1,8.9-5.9,11.1-8.3c0.7-0.8,1.4-1.6,2.2-2.3
			c0.5-0.5,1.1-1,1.6-1.5c2.1-1.9,4.4-4.1,5.8-4.1c1.5,0,3-0.2,4.4-0.3c2-0.2,3.8-0.4,5.1-0.1c2.8,0.6,5.5,1.9,8.6,4.2
			c1,0.7,1.9,1.7,3,2.7c2.7,2.7,6.1,6,11,6c4,0,8,1.9,11.3,3.7l0.9,0.5c3.5,1.9,5.2,2.7,10.9,2.4c1.2-0.1,2.3-0.2,3.3-0.3
			c3.1-0.3,4.8-0.5,8.2,0.8c2.9,1.1,5.4,1.8,7.9,2.5c2.4,0.7,4.7,1.3,7.3,2.3c3.4,1.3,6.8,2.2,9.1,2.7v94.7l-198.8,27.8L30.5,155.8z
			"/>
		<g>
			<path class="st0" d="M356.4,90.3c0,0-6.4,3-8.1,4.6s-4.6,8.1-4.6,8.1s6.4-3,8.1-4.6C353.4,96.7,356.4,90.3,356.4,90.3z
				 M349.1,97.6c-0.5-0.5-0.5-1.4,0-1.9c0.5-0.5,1.4-0.5,1.9,0c0.5,0.5,0.5,1.4,0,1.9C350.5,98.1,349.6,98.1,349.1,97.6z"/>
			<path class="st0" d="M364.7,96.7l3.3-2.4c-0.5-4-2.2-7.5-5.1-10.5c-3-2.9-6.5-4.6-10.5-5.1l-2.4,3.2l-2.4-3.2
				c-4,0.5-7.5,2.1-10.5,5c-3,3-4.7,6.4-5.2,10.5l3.3,2.4l-3.3,2.4c0.5,4,2.2,7.4,5,10.2c3,3,6.5,4.7,10.7,5.1l2.2-3l2.2,3
				c4.1-0.5,7.7-2.1,10.6-5c2.9-2.9,4.6-6.3,5.1-10.3L364.7,96.7z M357.4,104.5c-1.8,2-4.3,3-7.4,3c-3,0-5.5-1-7.4-3
				c-1.8-2-2.7-4.7-2.7-8c0-3.2,0.9-5.7,2.8-7.7c1.9-2,4.3-3,7.3-3c3,0,5.5,1,7.4,3c1.8,2,2.8,4.6,2.8,7.9
				C360.2,99.9,359.2,102.5,357.4,104.5z"/>
		</g>
	</g>
	<g>
		<path class="st0" d="M135.6,138h6.9c2.5,0,3.8,1.6,3.8,3.3c0,1.6-1,2.7-2.3,3c1.4,0.2,2.5,1.6,2.5,3.2c0,2-1.3,3.5-3.8,3.5h-7.1
			V138z M141.9,143.3c0.9,0,1.5-0.6,1.5-1.4c0-0.8-0.6-1.4-1.5-1.4h-3.5v2.8H141.9z M142,148.7c1.1,0,1.7-0.6,1.7-1.5
			c0-0.8-0.6-1.5-1.7-1.5h-3.6v3H142z"/>
		<path class="st0" d="M152.6,138h9.3v2.5h-6.5v2.8h6.3v2.5h-6.3v3h6.5v2.5h-9.3V138z"/>
		<path class="st0" d="M170.7,142.6v8.5h-2.8V138h2.9l6.1,8.2V138h2.8v13.1h-2.7L170.7,142.6z"/>
		<path class="st0" d="M186.1,138h5.2c4.1,0,6.9,2.6,6.9,6.5c0,3.9-2.8,6.5-6.9,6.5h-5.2V138z M191.3,148.7c2.6,0,4.1-1.9,4.1-4.1
			c0-2.3-1.4-4.1-4.1-4.1h-2.4v8.2H191.3z"/>
		<path class="st0" d="M203.4,152.9c0.6-0.3,1.4-1.1,1.5-1.8c-0.1,0-0.2,0.1-0.4,0.1c-0.7,0-1.3-0.6-1.3-1.4c0-0.9,0.7-1.6,1.5-1.6
			c0.9,0,1.8,0.7,1.8,2c0,1.5-0.8,2.8-2,3.6L203.4,152.9z"/>
		<path class="st0" d="M227.7,137.8c4,0,6.8,2.8,6.8,6.8c0,3.9-2.9,6.8-6.8,6.8c-3.9,0-6.8-2.8-6.8-6.8
			C220.9,140.7,223.7,137.8,227.7,137.8z M227.7,140.3c-2.4,0-4,1.8-4,4.3c0,2.4,1.5,4.3,4,4.3c2.4,0,4-1.9,4-4.3
			C231.7,142.1,230.1,140.3,227.7,140.3z"/>
		<path class="st0" d="M245.2,146.5h-2v4.6h-2.8V138h6.1c2.7,0,4.4,1.8,4.4,4.2c0,2.3-1.5,3.5-2.9,3.9l2.9,5h-3.2L245.2,146.5z
			 M246.1,140.5h-2.9v3.5h2.9c1.1,0,2-0.7,2-1.8S247.2,140.5,246.1,140.5z"/>
		<path class="st0" d="M256.9,138h9.3v2.5h-6.5v2.8h6.3v2.5h-6.3v3h6.5v2.5h-9.3V138z"/>
		<path class="st0" d="M278.6,137.8c2.7,0,4.4,1.4,5.4,2.9l-2.3,1.3c-0.6-0.9-1.7-1.7-3.1-1.7c-2.4,0-4.1,1.8-4.1,4.3
			c0,2.5,1.7,4.3,4.1,4.3c1.2,0,2.3-0.5,2.8-1v-1.6h-3.5v-2.4h6.2v5c-1.3,1.5-3.2,2.5-5.6,2.5c-3.8,0-7-2.7-7-6.8
			C271.6,140.5,274.8,137.8,278.6,137.8z"/>
		<path class="st0" d="M296.5,137.8c4,0,6.8,2.8,6.8,6.8c0,3.9-2.9,6.8-6.8,6.8c-3.9,0-6.8-2.8-6.8-6.8
			C289.7,140.7,292.5,137.8,296.5,137.8z M296.5,140.3c-2.4,0-4,1.8-4,4.3c0,2.4,1.5,4.3,4,4.3s4-1.9,4-4.3
			C300.5,142.1,298.9,140.3,296.5,140.3z"/>
		<path class="st0" d="M312,142.6v8.5h-2.8V138h2.9l6.1,8.2V138h2.8v13.1h-2.7L312,142.6z"/>
	</g>
</g>
</svg>
